<?xml version="1.0" encoding="utf-8"?>
<!-- Generator: Adobe Illustrator 24.3.0, SVG Export Plug-In . SVG Version: 6.00 Build 0)  -->
<svg version="1.1" id="Capa_1" xmlns="http://www.w3.org/2000/svg" xmlns:xlink="http://www.w3.org/1999/xlink" x="0px" y="0px"
	 viewBox="0 0 50 50" style="enable-background:new 0 0 50 50;" xml:space="preserve">
<style type="text/css">
	.st0{fill:none;stroke:#000000;stroke-miterlimit:10;}
	.st1{fill:none;}
</style>
<path class="st0" d="M3.4,1H47c1.4,0,2.5,1.1,2.5,2.5v43c0,1.4-1.1,2.5-2.5,2.5H3.4c-1.4,0-2.5-1.1-2.5-2.5v-43C0.9,2.1,2,1,3.4,1z"
	/>
<rect x="3.9" y="6.4" class="st0" width="42.6" height="39.6"/>
<g>
	<path d="M37.4,18.4v13.1c0,0.3-0.3,0.6-0.6,0.6h-0.3c-0.2,0-0.4-0.1-0.5-0.3c-1.1-1.6-2.5-2.9-4.2-3.8c-1.7-1-3.5-1.6-5.5-1.8
		c0.2,1.9,0.7,3.7,1.6,5.3c1,1.7,2.4,3.2,4,4.4c0.2,0.1,0.2,0.3,0.2,0.5v0.4c0,0.3-0.3,0.6-0.6,0.6l0,0H18.4c-0.4,0-0.6-0.3-0.6-0.6
		v-0.3c0-0.2,0.1-0.4,0.2-0.5c1.6-1.2,2.9-2.7,4-4.4c0.9-1.6,1.5-3.5,1.6-5.3c-1.9,0.2-3.8,0.8-5.5,1.8C16.5,29,15,30.3,14,31.9
		c-0.1,0.2-0.3,0.3-0.5,0.3h-0.3c-0.3,0-0.6-0.3-0.6-0.6V18.4c0-0.3,0.3-0.6,0.6-0.6h0.3c0.2,0,0.4,0.1,0.5,0.3
		c1.1,1.5,2.5,2.8,4.1,3.8c1.7,1,3.6,1.7,5.5,1.8c-0.4-3.9-2.4-7.4-5.6-9.7c-0.2-0.1-0.3-0.3-0.3-0.5v-0.3c0-0.3,0.3-0.6,0.6-0.6
		h13.2c0.3,0,0.6,0.3,0.6,0.6v0.3c0,0.2-0.1,0.4-0.2,0.5c-3.2,2.3-5.3,5.8-5.6,9.7c3.9-0.3,7.5-2.4,9.7-5.7c0.1-0.2,0.3-0.3,0.5-0.3
		h0.3C37.1,17.8,37.4,18.1,37.4,18.4z"/>
	<path class="st1" d="M27.8,22.2c0.1-0.9,0.2-1.8,0.4-2.7c-1.6,1.2-2.7,3-2.8,5c2-0.1,3.8-1.1,4.9-2.7C29.5,22,28.7,22.1,27.8,22.2z
		"/>
	<path d="M31,21.5l-0.4,0.6c-0.6,0.9-1.3,1.6-2.2,2.1c-0.9,0.5-1.9,0.9-3,0.9h-0.6v-0.6c0.1-2.1,1.3-4.1,3.1-5.2l0.6-0.4l-0.2,0.7
		v0.1c0,0,0,0.1,0,0.2c-0.1,0.7-0.3,1.4-0.5,2.3c0-0.6,0-1.2,0-1.9c-0.5,0.5-0.9,1.1-1.2,1.7c-0.3,0.6-0.6,1.3-0.7,2.1
		c0.7-0.1,1.4-0.4,2.1-0.7c0.6-0.3,1.2-0.7,1.7-1.2h-1.9c1-0.2,1.7-0.5,2.5-0.6L31,21.5z"/>
	<path class="st1" d="M27.8,27.8c0.9,0.1,1.8,0.2,2.6,0.4c-1.2-1.6-3-2.7-5-2.8c0.1,2,1.1,3.8,2.7,4.9C28,29.6,27.9,28.7,27.8,27.8z
		"/>
	<path d="M27.8,30.5L27.8,30.5L27.8,30.5C27.8,30.5,27.8,30.5,27.8,30.5z"/>
	<path d="M30.5,28.5c-0.9-0.2-1.7-0.4-2.7-0.7c0.6,0,1.2,0,1.9,0c-0.5-0.5-1.1-0.9-1.7-1.2c-0.6-0.3-1.3-0.6-2-0.7
		c0.1,0.7,0.3,1.4,0.6,2.1c0.3,0.6,0.7,1.2,1.2,1.7c0-0.7,0-1.3,0-1.9c0.2,0.9,0.5,1.7,0.6,2.5l0.1,0.7L28,30.6c0,0-0.1-0.1-0.2-0.1
		c0,0,0,0,0,0c-0.8-0.6-1.4-1.2-1.9-2.1c-0.5-0.9-0.8-1.9-0.9-2.9v-0.6l0.6,0.1c1.1,0.1,2.1,0.4,3,0.9c0.9,0.5,1.7,1.3,2.2,2.2
		l0.4,0.6L30.5,28.5z"/>
	<path class="st1" d="M22.2,27.8c-0.1,0.9-0.2,1.8-0.4,2.7c1.6-1.2,2.7-3,2.8-5c-2,0.1-3.8,1.1-4.9,2.7C20.5,28,21.3,27.9,22.2,27.8
		z"/>
	<path d="M25.2,25v0.6c-0.1,2.1-1.3,4.1-3.1,5.2l-0.6,0.4l0.2-0.7c0-0.1,0-0.2,0-0.2c0-0.1,0-0.1,0-0.2c0.1-0.7,0.3-1.4,0.5-2.3
		c0,0.6,0,1.2,0,1.9c0.5-0.5,0.9-1.1,1.2-1.7c0.3-0.6,0.6-1.3,0.7-2c-0.7,0.1-1.4,0.3-2.1,0.6c-0.6,0.3-1.2,0.7-1.7,1.2
		c0.7,0,1.3,0,1.9,0c-1,0.2-1.7,0.5-2.5,0.6L19,28.6l0.4-0.6c0,0,0.1-0.1,0.1-0.2c0,0,0,0,0,0c0.6-0.8,1.2-1.4,2-1.9
		c0.9-0.5,1.9-0.9,3-0.9H25.2z"/>
	<path d="M24.6,25.9c-0.2,0-0.4,0-0.5,0.1c0-0.2,0-0.4,0-0.6L24.6,25.9z"/>
	<path class="st1" d="M22.2,22.2c-0.9-0.1-1.8-0.2-2.6-0.4c1.2,1.6,3,2.7,5,2.8c-0.1-2-1.1-3.8-2.7-4.9C22,20.5,22.1,21.3,22.2,22.2
		z"/>
	<path d="M25.1,24.6v0.6h-0.6c-1.1-0.1-2.1-0.4-3-0.9s-1.7-1.3-2.2-2.2l-0.4-0.6l0.7,0.2h0.1c0,0,0.1,0,0.2,0
		c0.7,0.1,1.4,0.3,2.3,0.5c-0.6,0-1.2,0-1.9,0c0.5,0.5,1.1,0.9,1.7,1.2c0.6,0.3,1.3,0.6,2,0.7c-0.1-0.7-0.3-1.4-0.6-2.1
		c-0.3-0.6-0.7-1.2-1.2-1.7c0,0.7,0,1.3,0,1.9c-0.2-1-0.5-1.7-0.6-2.5L21.5,19l0.6,0.4c0.9,0.6,1.6,1.3,2.1,2.2
		C24.7,22.5,25.1,23.5,25.1,24.6z"/>
</g>
<path d="M45.6,4.9H44c-0.3,0-0.5-0.2-0.5-0.5V2.8c0-0.3,0.2-0.5,0.5-0.5h1.6c0.3,0,0.5,0.2,0.5,0.5v1.6C46,4.7,45.8,4.9,45.6,4.9z"
	/>
<path d="M42,4.9h-1.6c-0.3,0-0.5-0.2-0.5-0.5V2.8c0-0.3,0.2-0.5,0.5-0.5H42c0.3,0,0.5,0.2,0.5,0.5v1.6C42.5,4.7,42.3,4.9,42,4.9z"/>
<path d="M38.5,4.9h-1.6c-0.3,0-0.5-0.2-0.5-0.5V2.8c0-0.3,0.2-0.5,0.5-0.5h1.6c0.3,0,0.5,0.2,0.5,0.5v1.6
	C38.9,4.7,38.7,4.9,38.5,4.9z"/>
</svg>
