<svg id="Capa_1" data-name="Capa 1" xmlns="http://www.w3.org/2000/svg" viewBox="0 0 100 100"><defs><style>.cls-1,.cls-2{fill:#fff;}.cls-2{stroke:#000;stroke-miterlimit:10;}</style></defs><rect class="cls-1" x="0.5" y="0.5" width="99" height="99" rx="4.68"/><path d="M94.82,1A4.18,4.18,0,0,1,99,5.18V94.82A4.18,4.18,0,0,1,94.82,99H5.18A4.18,4.18,0,0,1,1,94.82V5.18A4.18,4.18,0,0,1,5.18,1H94.82m0-1H5.18A5.18,5.18,0,0,0,0,5.18V94.82A5.18,5.18,0,0,0,5.18,100H94.82A5.18,5.18,0,0,0,100,94.82V5.18A5.18,5.18,0,0,0,94.82,0Z"/><rect class="cls-2" x="9.26" y="8.67" width="81.47" height="87.65" transform="translate(102.5 2.5) rotate(90)"/><rect x="87.13" y="2.24" width="7.35" height="7.35" rx="1.86"/><rect x="78.66" y="2.24" width="7.35" height="7.35" rx="1.86"/><rect x="70.18" y="2.24" width="7.35" height="7.35" rx="1.86"/><path d="M59.07,60.42l.07,0A3.48,3.48,0,0,1,59,59a6.28,6.28,0,0,1,.47-2q.07-.28.18-.57l.06-.22.05-.23c.06-.45.15-.89.23-1.35.15-.84.24-1.68.46-2.51,0-.09.06-.18.1-.28h-.06c.17-1.27.37-2.31.45-3.36s.42-2.2,0-2.82c-3.26-4.44-6.69-8.75-10.25-13.33-2.57,3.29-4.78,6.5-7.39,9.37s-4,5.72-2.53,9.51c0,.09,0,.21-.07.44a3.29,3.29,0,0,1,.51,1.26,3.9,3.9,0,0,1,.24.73c.22,1.07.28,2.15.46,3.22A17.4,17.4,0,0,1,42.21,60v.13h0c0,.12,0,.24,0,.35l.08,0a2.52,2.52,0,0,0-.15.34,2.36,2.36,0,0,1-.38.8,1.47,1.47,0,0,1-.27.37c-2,2.08-2,4.32.12,6.31a3.41,3.41,0,0,1,1,2.09c.13,2.4,0,4.82.06,7.24s.91,3.42,3.5,3.45q4.57.06,9.16,0c2.44,0,3.33-.94,3.38-3.35,0-1.64,0-3.27,0-4.9,0-2-.2-3.88,1.76-5.48,1.63-1.33,1-3.62-.7-5.43A5.15,5.15,0,0,1,59.07,60.42Zm-8.42-13.9c.43.46,1.08.87,1.2,1.4.08.35-.61.88-1.18,1.6-.57-.72-1.28-1.23-1.21-1.58C49.58,47.41,50.23,47,50.65,46.52Zm-7.32-.38c1.82-2.43,3.7-4.81,5.92-7.66,0,2.81.86,5.05-1.6,6.9-1.6,1.2-1.21,3.93.29,5.33a3.93,3.93,0,0,0,5.24.18c1.58-1.3,2.2-4.12.65-5.28-2.47-1.86-1.75-4.17-1.44-6.75,2,2.66,4.18,5.2,5.91,8,.52.84-.17,2.46-.37,3.72-.57,3.48-1.16,7-1.75,10.48H45.11c-.75-4.58-1.49-9-2.17-13.39A2.32,2.32,0,0,1,43.33,46.14Zm12.46,32.1H45.34c0-2.69-.07-5.23.06-7.77a1.94,1.94,0,0,1,1.32-1.3c3-.12,5.92-.06,9.07-.06Zm1-11.85c-2.05.16-4.12.06-6.18.06s-4.12.09-6.17-.06c-.6,0-1.15-.75-1.72-1.15.58-.47,1.15-1.32,1.74-1.34q6.18-.18,12.35,0c.62,0,1.22.82,1.83,1.26C58,65.58,57.41,66.34,56.77,66.39Z"/><path d="M40.18,29.21c-2.12,0-4.22-.06-6.3.05-.5,0-1,.62-1.43,1-1.75,1.87-4.12,2.05-5.84.4a4,4,0,0,1,0-5.72c1.7-1.67,4.06-1.46,5.86.31a4,4,0,0,0,2.45,1.12q15,.12,30.06,0a4.32,4.32,0,0,0,2.63-1.18c1.81-1.72,4.2-1.9,5.88-.21a4,4,0,0,1,0,5.57,3.89,3.89,0,0,1-5.85-.18c-1.32-1.4-2.4-1.57-6.91-1a19.57,19.57,0,0,1,8.42,13l2.71.16v7.79H64.1V42.66l2.07-.25c-.55-7-7.38-13-14.92-13.19A15.67,15.67,0,0,0,35.07,42.38l2.18.26v7.73H29.48V42.6l2.3-.14c1.08-2.5,1.84-5,3.21-7.21S38.33,31.33,40.18,29.21Zm-8,16v2.42h2.52l-.11-2.42Zm37.13.07H66.82v2.35h2.44ZM72.54,28c-.89-.68-1.37-1.31-1.9-1.35s-1.14.68-1.17,1.11a1.63,1.63,0,0,0,1,1.28C71,29.06,71.55,28.51,72.54,28Zm-41.38-.23c-.85-.57-1.42-1.22-1.78-1.12A2.07,2.07,0,0,0,28.15,28c-.07.27.78,1.11,1.17,1.08S30.32,28.37,31.16,27.75Z"/><path class="cls-1" d="M45.11,61.09c-.75-4.58-1.49-9-2.17-13.39a2.32,2.32,0,0,1,.39-1.56c1.82-2.43,3.7-4.81,5.92-7.66,0,2.81.86,5.05-1.6,6.9-1.6,1.2-1.21,3.93.29,5.33a3.93,3.93,0,0,0,5.24.18c1.58-1.3,2.2-4.12.65-5.28-2.47-1.86-1.75-4.17-1.44-6.75,2,2.66,4.18,5.2,5.91,8,.52.84-.17,2.46-.37,3.72-.57,3.48-1.16,7-1.75,10.48Z"/><path class="cls-1" d="M45.34,78.24c0-2.69-.07-5.23.06-7.77a1.94,1.94,0,0,1,1.32-1.3c3-.12,5.92-.06,9.07-.06v9.13Z"/><path class="cls-1" d="M50.59,66.45c-2.05,0-4.12.09-6.17-.06-.6,0-1.15-.75-1.72-1.15.58-.47,1.15-1.32,1.74-1.34q6.18-.18,12.35,0c.62,0,1.22.82,1.83,1.26-.62.43-1.21,1.19-1.85,1.24C54.72,66.55,52.65,66.45,50.59,66.45Z"/><path class="cls-1" d="M50.67,49.52c-.57-.72-1.28-1.23-1.21-1.58.12-.53.77-.95,1.19-1.42.43.46,1.08.87,1.2,1.4C51.93,48.27,51.24,48.8,50.67,49.52Z"/><path class="cls-1" d="M32.13,45.21h2.41l.11,2.42H32.13Z"/><path class="cls-1" d="M69.26,45.28v2.35H66.82V45.28Z"/><path class="cls-1" d="M72.54,28c-1,.53-1.56,1.08-2.09,1a1.63,1.63,0,0,1-1-1.28c0-.43.78-1.14,1.17-1.11S71.65,27.3,72.54,28Z"/><path class="cls-1" d="M31.16,27.75c-.84.62-1.32,1.26-1.84,1.28s-1.24-.81-1.17-1.08a2.07,2.07,0,0,1,1.23-1.32C29.74,26.53,30.31,27.18,31.16,27.75Z"/></svg>