<svg id="Capa_1" data-name="Capa 1" xmlns="http://www.w3.org/2000/svg" viewBox="0 0 100 100"><defs><style>.cls-1,.cls-2{fill:#fff;}.cls-2{stroke:#000;stroke-miterlimit:10;}</style></defs><rect class="cls-1" x="0.5" y="0.5" width="99" height="99" rx="4.68"/><path d="M94.82,1A4.18,4.18,0,0,1,99,5.18V94.82A4.18,4.18,0,0,1,94.82,99H5.18A4.18,4.18,0,0,1,1,94.82V5.18A4.18,4.18,0,0,1,5.18,1H94.82m0-1H5.18A5.18,5.18,0,0,0,0,5.18V94.82A5.18,5.18,0,0,0,5.18,100H94.82A5.18,5.18,0,0,0,100,94.82V5.18A5.18,5.18,0,0,0,94.82,0Z"/><rect class="cls-2" x="9.26" y="8.67" width="81.47" height="87.65" transform="translate(102.5 2.5) rotate(90)"/><path d="M37.81,67.17a2.59,2.59,0,0,1-1-.19,5,5,0,0,1-.93-.47l-13.22-9a3,3,0,0,1-1.09-1.33,3.13,3.13,0,0,1-.25-1.22,3.46,3.46,0,0,1,.23-1.21,2.84,2.84,0,0,1,1.25-1.43l13-8.88a8.76,8.76,0,0,1,.8-.48,2.7,2.7,0,0,1,1.19-.28,3.51,3.51,0,0,1,.79.12,3.22,3.22,0,0,1,1.54,1.12,3.76,3.76,0,0,1,.72,1.19,2.73,2.73,0,0,1,0,2,3,3,0,0,1-1.2,1.43l-9.78,6.47,9.77,6.47a3,3,0,0,1,1.19,1.36,2.75,2.75,0,0,1,0,2.07,4.94,4.94,0,0,1-.65,1.1,3.64,3.64,0,0,1-1.32,1A2.66,2.66,0,0,1,37.81,67.17Z"/><path d="M44.12,68.69a3.24,3.24,0,0,1-1.45-.36A3.08,3.08,0,0,1,41,65.94a4.35,4.35,0,0,1,.63-2.4l13.24-25a6.24,6.24,0,0,1,.84-1.26,3,3,0,0,1,1.79-.93l.36,0a3.08,3.08,0,0,1,1.53.41,3,3,0,0,1,1.31,1.36,3,3,0,0,1,.15,2,7.16,7.16,0,0,1-.54,1.38L47,66.49a4.11,4.11,0,0,1-1.54,1.83A2.7,2.7,0,0,1,44.12,68.69Z"/><path d="M62.2,67.17a2.6,2.6,0,0,1-1-.21A3.4,3.4,0,0,1,59.94,66a4.89,4.89,0,0,1-.74-1.2,2.72,2.72,0,0,1,0-2.06,3,3,0,0,1,1.18-1.36l9.78-6.48-9.78-6.47A3,3,0,0,1,59.17,47a2.7,2.7,0,0,1,0-2,5,5,0,0,1,.64-1,3.26,3.26,0,0,1,1.56-1.15,3.51,3.51,0,0,1,.79-.12,2.76,2.76,0,0,1,1.16.26,5.07,5.07,0,0,1,.9.55l13,8.92a2.62,2.62,0,0,1,1.1,1.34,3.38,3.38,0,0,1,.24,1.21,3.1,3.1,0,0,1-.25,1.22,2.93,2.93,0,0,1-1,1.3l-13.16,9a4.69,4.69,0,0,1-1.06.55A2.83,2.83,0,0,1,62.2,67.17Z"/><rect x="87.13" y="2.24" width="7.35" height="7.35" rx="1.86"/><rect x="78.66" y="2.24" width="7.35" height="7.35" rx="1.86"/><rect x="70.18" y="2.24" width="7.35" height="7.35" rx="1.86"/></svg>