<svg xmlns="http://www.w3.org/2000/svg" viewBox="0 0 1620 69.71"><defs><style>.cls-1{fill:#fff;}</style></defs><g id="Capa_2" data-name="Capa 2"><g id="Capa_4" data-name="Capa 4"><rect x="775.14" y="-775.14" width="69.71" height="1620" transform="translate(844.86 -775.14) rotate(90)"/><polygon class="cls-1" points="449.38 10 440.78 10 421.21 59.71 429.81 59.71 449.38 10"/><polygon class="cls-1" points="620.85 10 612.26 10 592.69 59.71 601.29 59.71 620.85 10"/><polygon class="cls-1" points="571.86 10 563.26 10 543.7 59.71 552.3 59.71 571.86 10"/><polygon class="cls-1" points="596.36 10 587.76 10 568.2 59.71 576.79 59.71 596.36 10"/><polygon class="cls-1" points="547.36 10 538.76 10 519.2 59.71 527.8 59.71 547.36 10"/><polygon class="cls-1" points="473.87 10 465.27 10 445.71 59.71 454.31 59.71 473.87 10"/><polygon class="cls-1" points="522.87 10 514.27 10 494.7 59.71 503.3 59.71 522.87 10"/><polygon class="cls-1" points="498.37 10 489.77 10 470.21 59.71 478.81 59.71 498.37 10"/><polygon class="cls-1" points="743.34 10 734.74 10 715.18 59.71 723.77 59.71 743.34 10"/><polygon class="cls-1" points="767.83 10 759.24 10 739.67 59.71 748.27 59.71 767.83 10"/><polygon class="cls-1" points="645.35 10 636.75 10 617.19 59.71 625.79 59.71 645.35 10"/><polygon class="cls-1" points="424.88 10 416.28 10 396.72 59.71 405.31 59.71 424.88 10"/><polygon class="cls-1" points="792.33 10 783.74 10 764.17 59.71 772.77 59.71 792.33 10"/><polygon class="cls-1" points="669.85 10 661.25 10 641.69 59.71 650.28 59.71 669.85 10"/><polygon class="cls-1" points="718.84 10 710.24 10 690.68 59.71 699.28 59.71 718.84 10"/><polygon class="cls-1" points="694.34 10 685.75 10 666.18 59.71 674.78 59.71 694.34 10"/><polygon class="cls-1" points="816.83 10 808.23 10 788.67 59.71 797.26 59.71 816.83 10"/><polygon class="cls-1" points="155.41 10 146.81 10 127.25 59.71 135.85 59.71 155.41 10"/><polygon class="cls-1" points="400.38 10 391.78 10 372.22 59.71 380.82 59.71 400.38 10"/><polygon class="cls-1" points="81.92 10 73.33 10 53.76 59.71 62.36 59.71 81.92 10"/><polygon class="cls-1" points="179.91 10 171.31 10 151.75 59.71 160.34 59.71 179.91 10"/><polygon class="cls-1" points="0 31.43 8.43 10 0 10 0 31.43"/><polygon class="cls-1" points="32.93 10 24.33 10 4.77 59.71 13.36 59.71 32.93 10"/><polygon class="cls-1" points="204.41 10 195.81 10 176.25 59.71 184.84 59.71 204.41 10"/><polygon class="cls-1" points="57.42 10 48.83 10 29.26 59.71 37.86 59.71 57.42 10"/><polygon class="cls-1" points="130.91 10 122.32 10 102.75 59.71 111.35 59.71 130.91 10"/><polygon class="cls-1" points="351.39 10 342.79 10 323.23 59.71 331.82 59.71 351.39 10"/><polygon class="cls-1" points="326.89 10 318.29 10 298.73 59.71 307.33 59.71 326.89 10"/><polygon class="cls-1" points="228.9 10 220.31 10 200.74 59.71 209.34 59.71 228.9 10"/><polygon class="cls-1" points="375.88 10 367.29 10 347.72 59.71 356.32 59.71 375.88 10"/><polygon class="cls-1" points="253.4 10 244.8 10 225.24 59.71 233.84 59.71 253.4 10"/><polygon class="cls-1" points="277.9 10 269.3 10 249.74 59.71 258.33 59.71 277.9 10"/><polygon class="cls-1" points="302.39 10 293.8 10 274.23 59.71 282.83 59.71 302.39 10"/><polygon class="cls-1" points="106.42 10 97.82 10 78.26 59.71 86.85 59.71 106.42 10"/><polygon class="cls-1" points="1380.26 10 1371.66 10 1352.1 59.71 1360.69 59.71 1380.26 10"/><polygon class="cls-1" points="1404.75 10 1396.16 10 1376.59 59.71 1385.19 59.71 1404.75 10"/><polygon class="cls-1" points="1355.76 10 1347.16 10 1327.6 59.71 1336.2 59.71 1355.76 10"/><polygon class="cls-1" points="1453.75 10 1445.15 10 1425.59 59.71 1434.18 59.71 1453.75 10"/><polygon class="cls-1" points="1429.25 10 1420.65 10 1401.09 59.71 1409.69 59.71 1429.25 10"/><polygon class="cls-1" points="1331.26 10 1322.67 10 1303.1 59.71 1311.7 59.71 1331.26 10"/><polygon class="cls-1" points="1257.77 10 1249.17 10 1229.61 59.71 1238.21 59.71 1257.77 10"/><polygon class="cls-1" points="1306.77 10 1298.17 10 1278.61 59.71 1287.2 59.71 1306.77 10"/><polygon class="cls-1" points="1282.27 10 1273.67 10 1254.11 59.71 1262.71 59.71 1282.27 10"/><polygon class="cls-1" points="1600.73 10 1592.13 10 1572.57 59.71 1581.16 59.71 1600.73 10"/><polygon class="cls-1" points="841.32 10 832.73 10 813.16 59.71 821.76 59.71 841.32 10"/><polygon class="cls-1" points="1620 23.28 1620 10 1616.63 10 1597.07 59.71 1605.66 59.71 1620 23.28"/><polygon class="cls-1" points="1502.74 10 1494.14 10 1474.58 59.71 1483.18 59.71 1502.74 10"/><polygon class="cls-1" points="1478.24 10 1469.65 10 1450.08 59.71 1458.68 59.71 1478.24 10"/><polygon class="cls-1" points="1527.24 10 1518.64 10 1499.08 59.71 1507.67 59.71 1527.24 10"/><polygon class="cls-1" points="1551.73 10 1543.14 10 1523.57 59.71 1532.17 59.71 1551.73 10"/><polygon class="cls-1" points="1576.23 10 1567.63 10 1548.07 59.71 1556.67 59.71 1576.23 10"/><polygon class="cls-1" points="988.31 10 979.71 10 960.15 59.71 968.74 59.71 988.31 10"/><polygon class="cls-1" points="1037.3 10 1028.7 10 1009.14 59.71 1017.74 59.71 1037.3 10"/><polygon class="cls-1" points="1012.8 10 1004.21 10 984.64 59.71 993.24 59.71 1012.8 10"/><polygon class="cls-1" points="939.31 10 930.72 10 911.15 59.71 919.75 59.71 939.31 10"/><polygon class="cls-1" points="963.81 10 955.21 10 935.65 59.71 944.25 59.71 963.81 10"/><polygon class="cls-1" points="865.82 10 857.23 10 837.66 59.71 846.26 59.71 865.82 10"/><polygon class="cls-1" points="890.32 10 881.72 10 862.16 59.71 870.75 59.71 890.32 10"/><polygon class="cls-1" points="1233.28 10 1224.68 10 1205.12 59.71 1213.71 59.71 1233.28 10"/><polygon class="cls-1" points="914.82 10 906.22 10 886.66 59.71 895.25 59.71 914.82 10"/><polygon class="cls-1" points="1184.28 10 1175.68 10 1156.12 59.71 1164.72 59.71 1184.28 10"/><polygon class="cls-1" points="1208.78 10 1200.18 10 1180.62 59.71 1189.21 59.71 1208.78 10"/><polygon class="cls-1" points="1159.79 10 1151.19 10 1131.63 59.71 1140.22 59.71 1159.79 10"/><polygon class="cls-1" points="1086.29 10 1077.7 10 1058.13 59.71 1066.73 59.71 1086.29 10"/><polygon class="cls-1" points="1135.29 10 1126.69 10 1107.13 59.71 1115.72 59.71 1135.29 10"/><polygon class="cls-1" points="1061.8 10 1053.2 10 1033.64 59.71 1042.23 59.71 1061.8 10"/><polygon class="cls-1" points="1110.79 10 1102.19 10 1082.63 59.71 1091.23 59.71 1110.79 10"/></g></g></svg>