<svg id="visual" viewBox="0 0 1600 309" width="1600" height="309" xmlns="http://www.w3.org/2000/svg" xmlns:xlink="http://www.w3.org/1999/xlink" version="1.1"><path d="M0 66L133.3 72.2C266.7 78.3 533.3 90.7 800 91.7C1066.7 92.7 1333.3 82.3 1466.7 77.2L1600 72L1600 0L1466.7 0C1333.3 0 1066.7 0 800 0C533.3 0 266.7 0 133.3 0L0 0Z" fill="#ffffff"></path><path d="M0 103L133.3 111.2C266.7 119.3 533.3 135.7 800 140.3C1066.7 145 1333.3 138 1466.7 134.5L1600 131L1600 70L1466.7 75.2C1333.3 80.3 1066.7 90.7 800 89.7C533.3 88.7 266.7 76.3 133.3 70.2L0 64Z" fill="#585858"></path><path d="M0 125L133.3 136.8C266.7 148.7 533.3 172.3 800 176.8C1066.7 181.3 1333.3 166.7 1466.7 159.3L1600 152L1600 129L1466.7 132.5C1333.3 136 1066.7 143 800 138.3C533.3 133.7 266.7 117.3 133.3 109.2L0 101Z" fill="#000000"></path><path d="M0 171L133.3 184.3C266.7 197.7 533.3 224.3 800 232C1066.7 239.7 1333.3 228.3 1466.7 222.7L1600 217L1600 150L1466.7 157.3C1333.3 164.7 1066.7 179.3 800 174.8C533.3 170.3 266.7 146.7 133.3 134.8L0 123Z" fill="#585858"></path><path d="M0 310L133.3 310C266.7 310 533.3 310 800 310C1066.7 310 1333.3 310 1466.7 310L1600 310L1600 215L1466.7 220.7C1333.3 226.3 1066.7 237.7 800 230C533.3 222.3 266.7 195.7 133.3 182.3L0 169Z" fill="#ffffff"></path></svg>