<svg xmlns="http://www.w3.org/2000/svg" viewBox="0 0 32 32"><defs><style>.cls-1{fill:#fff;}</style></defs><g id="Capa_2" data-name="Capa 2"><g id="Capa_3" data-name="Capa 3"><path d="M11.85,3.72l-.08.38-.37-.71A27.06,27.06,0,0,0,9.73.6L9.32,0,10,.16a27.78,27.78,0,0,0,6,.65,27.78,27.78,0,0,0,6-.65L22.68,0l-.41.6A27.06,27.06,0,0,0,20.6,3.39l-.37.72-.08-.38L16,14.29Z"/><path class="cls-1" d="M11.77,2.72l-.12.54A25.88,25.88,0,0,0,10,.44a27.71,27.71,0,0,0,6,.66,27.71,27.71,0,0,0,6-.66,25.88,25.88,0,0,0-1.68,2.82l-.12-.53L16,13.5Z"/><path d="M.16,22a27.78,27.78,0,0,0,.65-6,27.78,27.78,0,0,0-.65-6L0,9.32l.6.41a26.15,26.15,0,0,0,2.78,1.66l.71.38-.36.07L14.3,16,3.73,20.15l.38.08-.72.37A27.06,27.06,0,0,0,.6,22.27l-.6.41Z"/><path class="cls-1" d="M.44,22a27.71,27.71,0,0,0,.66-6,27.71,27.71,0,0,0-.66-6,27.44,27.44,0,0,0,2.81,1.68l-.52.11L13.51,16,2.73,20.23l.53.12A25.88,25.88,0,0,0,.44,22Z"/><path d="M31.4,22.27a27.06,27.06,0,0,0-2.79-1.67l-.71-.37.38-.08L17.71,16l10.56-4.15-.38-.08.72-.37A27.06,27.06,0,0,0,31.4,9.73l.6-.41-.16.71a27.74,27.74,0,0,0,0,11.94l.16.71Z"/><path class="cls-1" d="M31.56,22a25.88,25.88,0,0,0-2.82-1.68l.54-.12L18.5,16l10.77-4.23-.53-.12A25.88,25.88,0,0,0,31.56,10a27.88,27.88,0,0,0,0,12.06Z"/><path d="M9.73,31.4a27.06,27.06,0,0,0,1.67-2.79l.37-.72.08.38L16,17.7l4.16,10.57.07-.37.38.72a26.15,26.15,0,0,0,1.66,2.78l.41.6L22,31.84a27.74,27.74,0,0,0-11.94,0L9.32,32Z"/><path class="cls-1" d="M10,31.56a25.88,25.88,0,0,0,1.68-2.82l.12.53L16,18.49l4.24,10.78.11-.52A27.44,27.44,0,0,0,22,31.56a27.88,27.88,0,0,0-12.06,0Z"/><polygon points="12.23 19.77 8.29 18.94 14.97 16 8.3 13.05 12.23 12.23 13.06 8.29 16 14.97 18.94 8.3 19.76 12.23 23.7 13.06 17.02 16 23.71 18.94 19.77 19.77 18.94 23.7 16 17.02 13.06 23.7 12.23 19.77"/><polygon class="cls-1" points="22.77 18.84 19.53 19.52 18.85 22.77 16 16.31 13.15 22.77 12.47 19.52 9.23 18.84 15.69 16 9.23 13.15 12.47 12.47 13.15 9.23 16 15.69 18.84 9.23 19.52 12.48 22.76 13.16 16.31 16 22.77 18.84"/></g></g></svg>