<svg id="Capa_1" data-name="Capa 1" xmlns="http://www.w3.org/2000/svg" viewBox="0 0 100 100"><defs><style>.cls-1{fill:#fff6f4;}.cls-2{fill:#fff;stroke:#000;stroke-miterlimit:10;}.cls-3{fill:#333;}</style></defs><rect class="cls-1" x="0.5" y="0.5" width="99" height="99" rx="4.68"/><path d="M94.82,1A4.18,4.18,0,0,1,99,5.18V94.82A4.18,4.18,0,0,1,94.82,99H5.18A4.18,4.18,0,0,1,1,94.82V5.18A4.18,4.18,0,0,1,5.18,1H94.82m0-1H5.18A5.18,5.18,0,0,0,0,5.18V94.82A5.18,5.18,0,0,0,5.18,100H94.82A5.18,5.18,0,0,0,100,94.82V5.18A5.18,5.18,0,0,0,94.82,0Z"/><rect class="cls-2" x="9.26" y="8.67" width="81.47" height="87.65" transform="translate(102.5 2.5) rotate(90)"/><rect x="87.13" y="2.24" width="7.35" height="7.35" rx="1.86"/><rect x="78.66" y="2.24" width="7.35" height="7.35" rx="1.86"/><rect x="70.18" y="2.24" width="7.35" height="7.35" rx="1.86"/><path class="cls-3" d="M59.79,61.61c.31-.39.53-.65.74-.93a13,13,0,0,0,1.68-13.61c-2-4.67-5.74-7.17-10.74-7.82a14.5,14.5,0,0,0-1.74-.1H27.17c-2.88,0-4.51,1.64-4.51,4.52V75.34c0,2.88,1.63,4.5,4.52,4.5H58.86c2.77,0,4.26-1.35,4.51-4.11,0-.33.12-.43.45-.43,1.34,0,2.68,0,4,0,.56,0,.44.36.44.67a8.91,8.91,0,0,1-6.45,8.43,9.8,9.8,0,0,1-2.7.34H26.92a8.84,8.84,0,0,1-9.15-9.14q0-16.36,0-32.74A8.89,8.89,0,0,1,27,33.69h8.28a2,2,0,0,0,1.16-.23.85.85,0,0,1,.81-.07,5.15,5.15,0,0,0,2.6.29c1.67,0,3.35,0,5,0,.46,0,.62-.11.59-.59,0-.76,0-1.52,0-2.28a1.32,1.32,0,0,1,1.45-1.47c2.13,0,4.25,0,6.38,0a1.3,1.3,0,0,1,1.43,1.48c0,1,0,1.92,0,2.88,0,.38,0,.6.48.7a16.63,16.63,0,0,1,4.12,1.69.54.54,0,0,0,.78-.13c.65-.68,1.31-1.34,2-2a1.37,1.37,0,0,1,2.19,0q2.19,2.18,4.35,4.35a1.35,1.35,0,0,1,0,2.18c-.63.66-1.27,1.31-1.94,1.93a.62.62,0,0,0-.16.9,15.35,15.35,0,0,1,1.58,4.08.56.56,0,0,0,.67.51c.94,0,1.87,0,2.81,0s1.55.48,1.55,1.53c0,2.07,0,4.15,0,6.22,0,1.05-.49,1.51-1.55,1.52s-1.88,0-2.81,0c-.42,0-.62.08-.74.53a13,13,0,0,1-1,2.69,1.89,1.89,0,0,1-1.91,1.2C63.4,61.57,61.68,61.61,59.79,61.61Z"/><path d="M40.18,43.38c-.52.7-1,1.24-1.34,1.82a13.26,13.26,0,0,0,9.69,20.54,14.52,14.52,0,0,0,1.74.11q11.28,0,22.56,0c2.88,0,4.52-1.64,4.52-4.52V29.65c0-2.87-1.64-4.5-4.53-4.5H41.14c-2.74,0-4.23,1.33-4.5,4.05,0,.36-.16.49-.51.49-1.29,0-2.58,0-3.87,0-.55,0-.52-.34-.52-.7a8.92,8.92,0,0,1,7.08-8.56,10.67,10.67,0,0,1,2-.17q16.1,0,32.21,0a8.82,8.82,0,0,1,9.16,9.13q0,16.37,0,32.74a8.9,8.9,0,0,1-9.16,9.17h-7.6a4,4,0,0,0-2.07.26.68.68,0,0,1-.52,0c-1.47-.59-3-.22-4.51-.3-1,0-2,0-3,0-.57,0-.83.13-.78.76a20,20,0,0,1,0,2c0,1-.48,1.51-1.48,1.51H46.76a1.3,1.3,0,0,1-1.46-1.44c0-1,0-1.93,0-2.89a.63.63,0,0,0-.56-.74A16.74,16.74,0,0,1,40.82,69a.69.69,0,0,0-1,.14c-.6.65-1.24,1.27-1.87,1.89a1.38,1.38,0,0,1-2.19,0q-2.22-2.19-4.41-4.4a1.34,1.34,0,0,1,0-2.13c.63-.65,1.27-1.3,1.93-1.93.29-.28.4-.5.17-.9a15.27,15.27,0,0,1-1.57-4c-.11-.47-.35-.59-.8-.58-.91,0-1.82,0-2.73,0s-1.5-.49-1.5-1.5q0-3.15,0-6.3a1.29,1.29,0,0,1,1.45-1.46c.94,0,1.88,0,2.81,0a.72.72,0,0,0,.86-.62,12.59,12.59,0,0,1,1-2.62,1.93,1.93,0,0,1,1.93-1.19C36.61,43.42,38.31,43.38,40.18,43.38Z"/><path class="cls-3" d="M50,59.94a7.45,7.45,0,1,1,7.45-7.43A7.45,7.45,0,0,1,50,59.94Z"/></svg>