<svg id="Capa_1" data-name="Capa 1" xmlns="http://www.w3.org/2000/svg" viewBox="0 0 100 100"><defs><style>.cls-1{fill:#fff6f4;}.cls-2{fill:#fff;stroke:#000;stroke-miterlimit:10;}</style></defs><rect class="cls-1" x="0.5" y="0.5" width="99" height="99" rx="4.68"/><path d="M94.82,1A4.18,4.18,0,0,1,99,5.18V94.82A4.18,4.18,0,0,1,94.82,99H5.18A4.18,4.18,0,0,1,1,94.82V5.18A4.18,4.18,0,0,1,5.18,1H94.82m0-1H5.18A5.18,5.18,0,0,0,0,5.18V94.82A5.18,5.18,0,0,0,5.18,100H94.82A5.18,5.18,0,0,0,100,94.82V5.18A5.18,5.18,0,0,0,94.82,0Z"/><rect class="cls-2" x="9.26" y="8.67" width="81.47" height="87.65" transform="translate(102.5 2.5) rotate(90)"/><rect x="87.13" y="2.24" width="7.35" height="7.35" rx="1.86"/><rect x="78.66" y="2.24" width="7.35" height="7.35" rx="1.86"/><rect x="70.18" y="2.24" width="7.35" height="7.35" rx="1.86"/><path d="M41.91,29.52h5.25c.65,0,.67,0,.88.62L63.49,73.75a3.68,3.68,0,0,1,.15.47c.09.41,0,.57-.47.6H54.38c-.58,0-.72-.1-.92-.67-1.1-3.19-2.19-6.37-3.3-9.56-.17-.5,0-.47-.68-.47H34.56c-.66,0-.53,0-.7.51q-1.53,4.68-3,9.38c-.23.71-.37.81-1.13.81H22.18c-.84,0-1-.2-.71-1l4.87-14,8.78-25.26a13,13,0,0,0,.79-4.37c0-.53.1-.61.65-.62Zm5.51,25.84C45.55,49.43,43.6,43.59,42,37.64a.9.9,0,0,0-.1-.18c-.06.21-.1.33-.13.45a52,52,0,0,1-1.52,5.63C39,47.35,38,51.22,36.64,55c0,.11-.09.21,0,.35Z"/><path d="M68.4,57.79V41.68c0-1,0-1,1-1h8a.53.53,0,0,1,.57.55c0,.13,0,.26,0,.39V74.05c0,.9-.08,1-1,1H69.39A3.23,3.23,0,0,1,69,75a.56.56,0,0,1-.54-.54,4.87,4.87,0,0,1,0-.54Z"/><path d="M73.24,37a4.83,4.83,0,0,1-1.78-.25,5.07,5.07,0,0,1-3.53-4.67,6.06,6.06,0,0,1,.13-1.9,5.24,5.24,0,0,1,4.39-3.9,7.06,7.06,0,0,1,2.2.07,4.6,4.6,0,0,1,3.52,2.9,5.81,5.81,0,0,1,0,4.59A5,5,0,0,1,73.24,37Z"/></svg>