<svg id="Capa_1" data-name="Capa 1" xmlns="http://www.w3.org/2000/svg" viewBox="0 0 100 100"><defs><style>.cls-1{fill:#fff6f4;}.cls-2{fill:#fff;stroke:#000;stroke-miterlimit:10;}</style></defs><rect class="cls-1" x="0.5" y="0.5" width="99" height="99" rx="4.68"/><path d="M94.82,1A4.18,4.18,0,0,1,99,5.18V94.82A4.18,4.18,0,0,1,94.82,99H5.18A4.18,4.18,0,0,1,1,94.82V5.18A4.18,4.18,0,0,1,5.18,1H94.82m0-1H5.18A5.18,5.18,0,0,0,0,5.18V94.82A5.18,5.18,0,0,0,5.18,100H94.82A5.18,5.18,0,0,0,100,94.82V5.18A5.18,5.18,0,0,0,94.82,0Z"/><rect class="cls-2" x="9.26" y="8.67" width="81.47" height="87.65" transform="translate(102.5 2.5) rotate(90)"/><rect x="87.13" y="2.24" width="7.35" height="7.35" rx="1.86"/><rect x="78.66" y="2.24" width="7.35" height="7.35" rx="1.86"/><rect x="70.18" y="2.24" width="7.35" height="7.35" rx="1.86"/><polygon points="68.92 47.95 41.37 32.04 41.37 63.85 68.92 47.95"/><rect x="17.83" y="76.35" width="64.33" height="3.8" rx="1.9"/><rect x="20.5" y="73.46" width="3" height="9.57" rx="1.44"/></svg>