<svg id="Capa_1" data-name="Capa 1" xmlns="http://www.w3.org/2000/svg" viewBox="0 0 100 100"><defs><style>.cls-1{fill:#fff6f4;}.cls-2{fill:#fff;stroke:#000;stroke-miterlimit:10;}</style></defs><rect class="cls-1" x="0.5" y="0.5" width="99" height="99" rx="4.68"/><path d="M94.82,1A4.18,4.18,0,0,1,99,5.18V94.82A4.18,4.18,0,0,1,94.82,99H5.18A4.18,4.18,0,0,1,1,94.82V5.18A4.18,4.18,0,0,1,5.18,1H94.82m0-1H5.18A5.18,5.18,0,0,0,0,5.18V94.82A5.18,5.18,0,0,0,5.18,100H94.82A5.18,5.18,0,0,0,100,94.82V5.18A5.18,5.18,0,0,0,94.82,0Z"/><rect class="cls-2" x="9.26" y="8.67" width="81.47" height="87.65" transform="translate(102.5 2.5) rotate(90)"/><rect x="87.13" y="2.24" width="7.35" height="7.35" rx="1.86"/><rect x="78.66" y="2.24" width="7.35" height="7.35" rx="1.86"/><rect x="70.18" y="2.24" width="7.35" height="7.35" rx="1.86"/><path d="M19.29,52.14V30.56c0-.1,0-.21,0-.31,0-.33.13-.46.46-.46L22,29.74c2.16,0,4.32-.11,6.49-.15,1.74,0,3.49-.06,5.24,0a24.64,24.64,0,0,1,7.48,1.15,15.63,15.63,0,0,1,6.12,3.66,13.43,13.43,0,0,1,3.72,7.09,17.41,17.41,0,0,1-.52,9,13.36,13.36,0,0,1-5.75,7.16,17.16,17.16,0,0,1-6.08,2.28,37.18,37.18,0,0,1-7.95.52c-.66,0-1.31-.05-2-.07-.32,0-.32,0-.32.31V73.86c0,.54-.15.7-.69.7H19.93c-.53,0-.64-.12-.64-.65Zm9.24.13.14,0a29.22,29.22,0,0,0,6.61-.17,11,11,0,0,0,3.31-1,6,6,0,0,0,3.32-3.9,8.6,8.6,0,0,0,.16-3.64,6,6,0,0,0-3.85-4.83,10.92,10.92,0,0,0-4-.84c-1.78,0-3.56,0-5.34,0-.33,0-.33,0-.33.36v14Z"/><path d="M56,69.08V65.34c0-.39.24-.5.58-.3a18.58,18.58,0,0,0,3.79,1.67,21.54,21.54,0,0,0,6.9,1A8.74,8.74,0,0,0,70,67.31a2.08,2.08,0,0,0,1.51-1.7,1.73,1.73,0,0,0-.43-1.41,4.43,4.43,0,0,0-1.73-1.27c-1.23-.54-2.47-1.06-3.71-1.56a22.62,22.62,0,0,1-6-3.3,9.2,9.2,0,0,1-3.35-5.18,9.93,9.93,0,0,1,3.8-10.19,13.19,13.19,0,0,1,5.94-2.37,28.22,28.22,0,0,1,6.56-.1,21,21,0,0,1,4.31.69c.47.14.93.33,1.4.47a.81.81,0,0,1,.61.76c0,.12,0,.24,0,.36,0,2.18,0,4.36,0,6.54,0,.72-.53.79-1,.61s-.7-.34-1.06-.49A16.62,16.62,0,0,0,72.44,48c-1.14-.15-2.29-.22-3.43-.29a8,8,0,0,0-2.57.34,2,2,0,0,0-1.52,2,1.8,1.8,0,0,0,.48,1.14A5,5,0,0,0,67,52.34a39,39,0,0,0,4.41,1.89,26.54,26.54,0,0,1,5,2.56,8.69,8.69,0,0,1,4.06,5.61A10,10,0,0,1,74.6,74a17,17,0,0,1-5.39,1.36,29.47,29.47,0,0,1-8.69-.47,18.26,18.26,0,0,1-3.9-1.24.94.94,0,0,1-.63-1C56,71.46,56,70.27,56,69.08Z"/></svg>